<svg width="135" height="41" viewBox="0 0 135 41" fill="none" xmlns="http://www.w3.org/2000/svg">
<path d="M2 37H135V41H2V37Z" fill="url(#paint0_linear_653_7742)"/>
<path d="M6.5332 19.8887C6.5332 18.043 7.64648 16.9443 9.28711 16.9297C10.957 16.9443 11.9092 18.0137 11.8945 19.8008V29H16.8457V18.8633C16.8457 15.2305 14.6631 12.8867 11.3086 12.8867C8.93555 12.8867 7.26562 14.0439 6.5332 15.9922H6.35742V7.78906H1.58203V29H6.5332V19.8887ZM22.2363 34.9766C25.9717 34.9619 27.7588 33.1602 28.6523 30.5527L34.6875 13.0918H29.4727L26.4551 24.5176H26.2793L23.2617 13.0918H18.1055L23.7598 29.5566L23.584 30.0547C23.1592 31.1094 22.5146 31.1973 21.709 31.1973C21.1084 31.1973 20.4199 31.1826 19.7754 31.1387V34.8887C20.4199 34.9473 21.2988 34.9619 22.2363 34.9766ZM36.5918 34.9766H41.543V26.4219H41.6602C42.2754 27.8721 43.6963 29.2344 46.1426 29.2344C49.6729 29.2344 52.5 26.4512 52.5 21.0605C52.5 15.4795 49.5117 12.8867 46.1426 12.8867C43.6084 12.8867 42.2461 14.3809 41.6602 15.8164H41.4844V13.0918H36.5918V34.9766ZM41.4258 21.0312C41.4258 18.3945 42.5244 16.7539 44.4434 16.7539C46.3916 16.7539 47.4463 18.4385 47.4316 21.0312C47.4463 23.6533 46.377 25.3672 44.4434 25.3672C42.5391 25.3672 41.4258 23.668 41.4258 21.0312ZM62.5195 29.293C66.6357 29.293 69.3604 27.3008 69.9609 24.1953H65.3613C64.9658 25.1328 63.9551 25.7188 62.6074 25.7188C60.6006 25.7188 59.3701 24.3857 59.3555 22.3496V22.2617H70.0195V21.002C70.0195 15.7285 66.8115 12.8867 62.3438 12.8867C57.5684 12.8867 54.4922 16.1826 54.4922 21.1191C54.4922 26.1875 57.5391 29.293 62.5195 29.293ZM59.3555 19.3613C59.4287 17.7207 60.7178 16.4609 62.4609 16.4609C64.1602 16.4609 65.3906 17.6621 65.4199 19.3613H59.3555ZM72.5684 29H77.5195V20.2988C77.5049 18.3799 78.8672 17.0908 80.7129 17.1055C81.3135 17.0908 82.207 17.1934 82.6758 17.3398V13.0332C82.2656 12.9453 81.7236 12.8721 81.2695 12.8574C79.5117 12.8721 78.1055 13.8828 77.5195 15.9629H77.373V13.0918H72.5684V29ZM89.6191 7.78906H84.668V29H89.6191V7.78906ZM92.7832 29H97.7344V13.0918H92.7832V29ZM92.7246 8.81445C92.7246 10.1328 93.8672 11.1875 95.2734 11.1875C96.6943 11.1875 97.8369 10.1328 97.8516 8.81445C97.8369 7.49609 96.6943 6.42676 95.2734 6.44141C93.8672 6.42676 92.7246 7.49609 92.7246 8.81445ZM105.85 19.8887C105.85 18.043 106.934 16.9443 108.574 16.9297C110.215 16.9443 111.182 18.0137 111.182 19.8008V29H116.104V18.8633C116.118 15.2598 113.95 12.8867 110.596 12.8867C108.252 12.8867 106.479 14.0732 105.762 15.9922H105.586V13.0918H100.898V29H105.85V19.8887ZM119.209 29H124.16V24.1514L125.2 22.9062L129.111 29H134.824L128.862 20.0205L134.59 13.0918H128.965L124.365 18.8633H124.16V7.78906H119.209V29Z" fill="url(#paint1_linear_653_7742)"/>
<defs>
<linearGradient id="paint0_linear_653_7742" x1="2" y1="38.6" x2="135" y2="38.6" gradientUnits="userSpaceOnUse">
<stop stop-color="#3772FF"/>
<stop offset="1" stop-color="#3772FF" stop-opacity="0.05"/>
</linearGradient>
<linearGradient id="paint1_linear_653_7742" x1="5.02914e-07" y1="18" x2="170.459" y2="18" gradientUnits="userSpaceOnUse">
<stop stop-color="#3772FF"/>
<stop offset="1" stop-color="#3772FF" stop-opacity="0.05"/>
</linearGradient>
</defs>
</svg>
