<svg width="28" height="28" viewBox="0 0 28 28" fill="none" xmlns="http://www.w3.org/2000/svg">
<path d="M14 0.666687C6.77196 0.666687 0.666626 6.77202 0.666626 14C0.666626 21.228 6.77196 27.3334 14 27.3334C21.228 27.3334 27.3333 21.228 27.3333 14C27.3333 6.77202 21.228 0.666687 14 0.666687ZM14 7.33335C16.3026 7.33335 18 9.02935 18 11.3334C18 13.6374 16.3026 15.3334 14 15.3334C11.6986 15.3334 9.99996 13.6374 9.99996 11.3334C9.99996 9.02935 11.6986 7.33335 14 7.33335ZM7.19196 20.3627C8.38796 18.6027 10.3826 17.4294 12.6666 17.4294H15.3333C17.6186 17.4294 19.612 18.6027 20.808 20.3627C19.104 22.1867 16.6866 23.3334 14 23.3334C11.3133 23.3334 8.89596 22.1867 7.19196 20.3627Z" fill="#C2C6CC"/>
</svg>
